<?xml version="1.0" standalone="no"?>
<!DOCTYPE svg PUBLIC "-//W3C//DTD SVG 20010904//EN"
 "http://www.w3.org/TR/2001/REC-SVG-20010904/DTD/svg10.dtd">
<svg version="1.0" xmlns="http://www.w3.org/2000/svg"
 width="192.000000pt" height="192.000000pt" viewBox="0 0 192.000000 192.000000"
 preserveAspectRatio="xMidYMid meet">

<g transform="translate(0.000000,192.000000) scale(0.100000,-0.100000)"
fill="white" stroke="none">
<path d="M0 960 l0 -960 960 0 960 0 0 960 0 960 -960 0 -960 0 0 -960z m1645
713 c51 -27 90 -68 109 -115 14 -32 16 -98 16 -433 0 -427 0 -428 -55 -493
-48 -57 -92 -73 -228 -79 l-122 -6 3 -198 3 -199 -86 0 -85 0 0 200 0 200
-245 0 -245 0 0 -200 0 -200 -80 0 -80 0 0 198 0 199 -124 6 c-97 4 -133 10
-164 26 -49 25 -95 80 -111 130 -16 55 -15 779 1 835 17 56 84 121 145 140 41
13 142 15 678 13 625 -2 630 -2 670 -24z"/>
<path d="M324 1516 c-18 -14 -19 -30 -19 -391 0 -361 1 -377 19 -391 16 -11
71 -14 283 -14 l263 0 0 405 0 405 -263 0 c-212 0 -267 -3 -283 -14z m449 -98
c20 -26 21 -42 21 -299 l1 -271 -28 -24 c-27 -23 -34 -24 -177 -24 -143 0
-150 1 -177 24 l-28 24 0 275 0 275 24 26 25 26 159 -2 160 -3 20 -27z"/>
<path d="M550 1125 l0 -165 40 0 40 0 0 165 0 165 -40 0 -40 0 0 -165z"/>
<path d="M1040 1125 l0 -405 263 0 c211 0 267 3 283 14 18 14 19 31 22 385 3
361 2 371 -18 391 -19 19 -32 20 -285 20 l-265 0 0 -405z m445 319 c35 -14 45
-58 45 -203 0 -133 -1 -141 -24 -168 -23 -27 -29 -28 -126 -31 l-101 -4 3 -36
3 -37 85 -3 c112 -3 127 -7 145 -42 21 -40 19 -54 -11 -89 l-26 -31 -154 0
c-151 0 -156 1 -179 25 -24 23 -25 28 -25 179 l0 154 31 26 c28 24 38 26 120
26 l89 0 0 40 0 40 -99 0 c-96 0 -100 1 -120 26 -28 36 -27 79 4 109 23 24 28
25 174 25 82 0 157 -3 166 -6z"/>
</g>
</svg>
